HIERARCHY
ROOT hip
{
  OFFSET 0 90.174 2.4664
  CHANNELS 6 Xposition Yposition Zposition Zrotation Xrotation Yrotation
  JOINT abdomen
  {
    OFFSET 0 -1.186 -1.5018
    CHANNELS 6 Xposition Yposition Zposition Zrotation Xrotation Yrotation
    JOINT abdomen2
    {
      OFFSET 0 9.964 0.2134
      CHANNELS 6 Xposition Yposition Zposition Zrotation Xrotation Yrotation
      JOINT chest
      {
        OFFSET 0 13.134 -3.2573
        CHANNELS 6 Xposition Yposition Zposition Zrotation Xrotation Yrotation
        JOINT neck
        {
          OFFSET 0 20.686 -1.6905
          CHANNELS 6 Xposition Yposition Zposition Zrotation Xrotation Yrotation
          JOINT head
          {
            OFFSET 0 7.238 -0.1237
            CHANNELS 6 Xposition Yposition Zposition Zrotation Xrotation Yrotation
            End Site
            {
              OFFSET 0 0 0
            }
          }
        }
        JOINT lCollar
        {
          OFFSET 1.7069 20.075 5.0056
          CHANNELS 6 Xposition Yposition Zposition Zrotation Xrotation Yrotation
          JOINT lShldr
          {
            OFFSET 13.6458 -0.047 -4.849
            CHANNELS 6 Xposition Yposition Zposition Zrotation Xrotation Yrotation
            JOINT lForeArm
            {
              OFFSET 28.3255 -0.9759 2.2888
              CHANNELS 6 Xposition Yposition Zposition Zrotation Xrotation Yrotation
              JOINT lHand
              {
                OFFSET 22.1583 -0.53 10.8316
                CHANNELS 6 Xposition Yposition Zposition Zrotation Xrotation Yrotation
                JOINT lThumb1
                {
                  OFFSET 0.786 0.112 2.5817
                  CHANNELS 6 Xposition Yposition Zposition Zrotation Xrotation Yrotation
                  JOINT lThumb2
                  {
                    OFFSET 0.3601 -0.878 4.2331
                    CHANNELS 6 Xposition Yposition Zposition Zrotation Xrotation Yrotation
                    JOINT lThumb2_End
                    {
                      OFFSET 1.8127 -1.216 2.2227
                      CHANNELS 6 Xposition Yposition Zposition Zrotation Xrotation Yrotation
                      End Site
                      {
                        OFFSET 0.0181 -0.0122 0.0222
                      }
                    }
                  }
                }
                JOINT lCarpal1
                {
                  OFFSET 0.9571 1.114 1.7695
                  CHANNELS 6 Xposition Yposition Zposition Zrotation Xrotation Yrotation
                  JOINT lIndex1
                  {
                    OFFSET 4.1246 0.487 4.1451
                    CHANNELS 6 Xposition Yposition Zposition Zrotation Xrotation Yrotation
                    JOINT lIndex2
                    {
                      OFFSET 3.4052 -1.454 2.7682
                      CHANNELS 6 Xposition Yposition Zposition Zrotation Xrotation Yrotation
                      JOINT lIndex2_End
                      {
                        OFFSET 1.4531 -1.795 1.2713
                        CHANNELS 6 Xposition Yposition Zposition Zrotation Xrotation Yrotation
                        End Site
                        {
                          OFFSET 0.0145 -0.0179 0.0127
                        }
                      }
                    }
                  }
                  JOINT lMid1
                  {
                    OFFSET 5.6954 0.21 2.1184
                    CHANNELS 6 Xposition Yposition Zposition Zrotation Xrotation Yrotation
                    JOINT lMid2
                    {
                      OFFSET 3.9766 -1.54 2.3863
                      CHANNELS 6 Xposition Yposition Zposition Zrotation Xrotation Yrotation
                      JOINT lMid2_End
                      {
                        OFFSET 1.4042 -1.926 1.125
                        CHANNELS 6 Xposition Yposition Zposition Zrotation Xrotation Yrotation
                        End Site
                        {
                          OFFSET 0.014 -0.0193 0.0113
                        }
                      }
                    }
                  }
                }
                JOINT lCarpal2
                {
                  OFFSET 2.0956 0.66 -0.3894
                  CHANNELS 6 Xposition Yposition Zposition Zrotation Xrotation Yrotation
                  JOINT lRing1
                  {
                    OFFSET 5.0395 -0.09 2.4971
                    CHANNELS 6 Xposition Yposition Zposition Zrotation Xrotation Yrotation
                    JOINT lRing2
                    {
                      OFFSET 3.7921 -1.552 1.4806
                      CHANNELS 6 Xposition Yposition Zposition Zrotation Xrotation Yrotation
                      JOINT lRing2_End
                      {
                        OFFSET 1.4655 -1.808 0.9609
                        CHANNELS 6 Xposition Yposition Zposition Zrotation Xrotation Yrotation
                        End Site
                        {
                          OFFSET 0.0147 -0.0181 0.0096
                        }
                      }
                    }
                  }
                  JOINT lPinky1
                  {
                    OFFSET 4.9141 -1.269 0.3591
                    CHANNELS 6 Xposition Yposition Zposition Zrotation Xrotation Yrotation
                    JOINT lPinky2
                    {
                      OFFSET 3.1477 -1.685 0.8462
                      CHANNELS 6 Xposition Yposition Zposition Zrotation Xrotation Yrotation
                      JOINT lPinky2_End
                      {
                        OFFSET 0.8055 -1.585 0.7955
                        CHANNELS 6 Xposition Yposition Zposition Zrotation Xrotation Yrotation
                        End Site
                        {
                          OFFSET 0.0081 -0.0158 0.008
                        }
                      }
                    }
                  }
                }
              }
            }
          }
        }
        JOINT rCollar
        {
          OFFSET -1.7069 20.075 5.0056
          CHANNELS 6 Xposition Yposition Zposition Zrotation Xrotation Yrotation
          JOINT rShldr
          {
            OFFSET -13.6458 -0.047 -4.849
            CHANNELS 6 Xposition Yposition Zposition Zrotation Xrotation Yrotation
            JOINT rForeArm
            {
              OFFSET -28.3255 -0.9759 2.2888
              CHANNELS 6 Xposition Yposition Zposition Zrotation Xrotation Yrotation
              JOINT rHand
              {
                OFFSET -22.1583 -0.53 10.8316
                CHANNELS 6 Xposition Yposition Zposition Zrotation Xrotation Yrotation
                JOINT rThumb1
                {
                  OFFSET -0.786 0.112 2.5817
                  CHANNELS 6 Xposition Yposition Zposition Zrotation Xrotation Yrotation
                  JOINT rThumb2
                  {
                    OFFSET -0.3601 -0.878 4.2331
                    CHANNELS 6 Xposition Yposition Zposition Zrotation Xrotation Yrotation
                    JOINT rThumb2_End
                    {
                      OFFSET -1.8127 -1.216 2.2227
                      CHANNELS 6 Xposition Yposition Zposition Zrotation Xrotation Yrotation
                      End Site
                      {
                        OFFSET -0.0181 -0.0122 0.0222
                      }
                    }
                  }
                }
                JOINT rCarpal1
                {
                  OFFSET -0.9571 1.114 1.7695
                  CHANNELS 6 Xposition Yposition Zposition Zrotation Xrotation Yrotation
                  JOINT rIndex1
                  {
                    OFFSET -4.1246 0.487 4.1451
                    CHANNELS 6 Xposition Yposition Zposition Zrotation Xrotation Yrotation
                    JOINT rIndex2
                    {
                      OFFSET -3.4052 -1.454 2.7682
                      CHANNELS 6 Xposition Yposition Zposition Zrotation Xrotation Yrotation
                      JOINT rIndex2_End
                      {
                        OFFSET -1.4531 -1.795 1.2713
                        CHANNELS 6 Xposition Yposition Zposition Zrotation Xrotation Yrotation
                        End Site
                        {
                          OFFSET -0.0145 -0.018 0.0127
                        }
                      }
                    }
                  }
                  JOINT rMid1
                  {
                    OFFSET -5.6954 0.21 2.1184
                    CHANNELS 6 Xposition Yposition Zposition Zrotation Xrotation Yrotation
                    JOINT rMid2
                    {
                      OFFSET -3.9766 -1.54 2.3863
                      CHANNELS 6 Xposition Yposition Zposition Zrotation Xrotation Yrotation
                      JOINT rMid2_End
                      {
                        OFFSET -1.4042 -1.926 1.125
                        CHANNELS 6 Xposition Yposition Zposition Zrotation Xrotation Yrotation
                        End Site
                        {
                          OFFSET -0.014 -0.0193 0.0113
                        }
                      }
                    }
                  }
                }
                JOINT rCarpal2
                {
                  OFFSET -2.0956 0.66 -0.3894
                  CHANNELS 6 Xposition Yposition Zposition Zrotation Xrotation Yrotation
                  JOINT rRing1
                  {
                    OFFSET -5.0395 -0.09 2.4971
                    CHANNELS 6 Xposition Yposition Zposition Zrotation Xrotation Yrotation
                    JOINT rRing2
                    {
                      OFFSET -3.7921 -1.552 1.4806
                      CHANNELS 6 Xposition Yposition Zposition Zrotation Xrotation Yrotation
                      JOINT rRing2_End
                      {
                        OFFSET -1.4655 -1.808 0.9609
                        CHANNELS 6 Xposition Yposition Zposition Zrotation Xrotation Yrotation
                        End Site
                        {
                          OFFSET -0.0147 -0.0181 0.0096
                        }
                      }
                    }
                  }
                  JOINT rPinky1
                  {
                    OFFSET -4.9141 -1.269 0.3592
                    CHANNELS 6 Xposition Yposition Zposition Zrotation Xrotation Yrotation
                    JOINT rPinky2
                    {
                      OFFSET -3.1477 -1.685 0.8462
                      CHANNELS 6 Xposition Yposition Zposition Zrotation Xrotation Yrotation
                      JOINT rPinky2_End
                      {
                        OFFSET -0.8055 -1.585 0.7955
                        CHANNELS 6 Xposition Yposition Zposition Zrotation Xrotation Yrotation
                        End Site
                        {
                          OFFSET -0.0081 -0.0158 0.008
                        }
                      }
                    }
                  }
                }
              }
            }
          }
        }
      }
    }
  }
  JOINT lThigh
  {
    OFFSET 8.367 -8.2066 0.5982
    CHANNELS 6 Xposition Yposition Zposition Zrotation Xrotation Yrotation
    JOINT lShin
    {
      OFFSET 2.1923 -43.463 -0.4932
      CHANNELS 6 Xposition Yposition Zposition Zrotation Xrotation Yrotation
      JOINT lFoot
      {
        OFFSET 0.7333 -45.8593 -2.6451
        CHANNELS 6 Xposition Yposition Zposition Zrotation Xrotation Yrotation
        End Site
        {
          OFFSET 2.6618 -4.2699 12.3931
        }
      }
    }
  }
  JOINT rThigh
  {
    OFFSET -8.367 -8.2066 0.5982
    CHANNELS 6 Xposition Yposition Zposition Zrotation Xrotation Yrotation
    JOINT rShin
    {
      OFFSET -2.1923 -43.463 -0.4931
      CHANNELS 6 Xposition Yposition Zposition Zrotation Xrotation Yrotation
      JOINT rFoot
      {
        OFFSET -0.7333 -45.8593 -2.6451
        CHANNELS 6 Xposition Yposition Zposition Zrotation Xrotation Yrotation
        End Site
        {
          OFFSET -2.6618 -4.2699 12.3931
        }
      }
    }
  }
}
MOTION
Frames:	4
Frame Time:	0.0333333
-1.14766 20.2122 -33.884 -0.0370044 71.9967 0.0420106 0 -1.186 -1.5018 -0.104304 6.32296 -0.110471 -2.22045e-016 9.964 0.2134 -0.198081 12.646 -0.211226 -2.22045e-016 13.134 -3.2573 -0.198081 12.646 -0.211227 -2.22045e-016 20.686 -1.6905 -2.07138e-008 -3.96758 2.84619e-007 -2.22045e-016 7.238 -0.1237 3.08056e-008 -34.0849 7.59428e-008 1.7069 20.075 5.0056 -1.80347 -14.0378 24.152 13.6458 -0.047 -4.849 2.66605 -4.0861 -59.7161 28.3255 -0.9759 2.2888 11.4141 -15.5729 -25.2198 22.1583 -0.53 10.8316 53.5325 -20.0731 20.5983 0.786 0.112 2.5817 -4.52604e-007 1.21424e-007 6.35922e-006 0.3601 -0.878 4.2331 1.59028e-015 7.95139e-016 1.27222e-014 1.8127 -1.216 2.2227 4.52604e-007 -1.21424e-007 -6.35922e-006 0.9571 1.114 1.7695 0 0 -3.18055e-015 4.1246 0.487 4.1451 -4.52604e-007 1.21424e-007 6.35922e-006 3.4052 -1.454 2.7682 -8.82781e-032 7.95139e-016 6.36111e-015 1.4531 -1.795 1.2713 4.52604e-007 -1.21424e-007 -6.35922e-006 5.6954 0.21 2.1184 -4.52604e-007 1.21424e-007 6.35922e-006 3.9766 -1.54 2.3863 -8.82781e-032 7.95139e-016 6.36111e-015 1.4042 -1.926 1.125 4.52604e-007 -1.21424e-007 -6.35922e-006 2.0956 0.66 -0.3894 0 0 -3.18055e-015 5.0395 -0.09 2.4971 -4.52604e-007 1.21424e-007 6.35922e-006 3.7921 -1.552 1.4806 -8.82781e-032 7.95139e-016 6.36111e-015 1.4655 -1.808 0.9609 4.52604e-007 -1.21424e-007 -6.35922e-006 4.9141 -1.269 0.3591 -4.52604e-007 1.21424e-007 6.35922e-006 3.1477 -1.685 0.8462 -8.82781e-032 7.95139e-016 6.36111e-015 0.8055 -1.585 0.7955 4.52604e-007 -1.21424e-007 -6.35922e-006 -1.7069 20.075 5.0056 1.4442 -14.2117 -21.4784 -13.6458 -0.047 -4.849 -1.69049 -2.24392 58.6815 -28.3255 -0.9759 2.2888 -15.171 -18.5288 31.1151 -22.1583 -0.53 10.8316 -52.5333 -12.5758 -24.3789 -0.786 0.112 2.5817 -3.97252e-031 -2.38542e-015 -9.54166e-015 -0.3601 -0.878 4.2331 -1.46845e-006 -1.42533e-006 6.01778e-006 -1.8127 -1.216 2.2227 -1.59028e-015 -1.59028e-015 -0 -0.9571 1.114 1.7695 1.59028e-015 -7.95139e-016 -9.54166e-015 -4.1246 0.487 4.1451 -0 -4.77083e-015 -0 -3.4052 -1.454 2.7682 -1.46845e-006 -1.42533e-006 6.01778e-006 -1.4531 -1.795 1.2713 0 1.59028e-015 -0 -5.6954 0.21 2.1184 -0 -4.77083e-015 -0 -3.9766 -1.54 2.3863 -1.46845e-006 -1.42533e-006 6.01778e-006 -1.4042 -1.926 1.125 0 1.59028e-015 -0 -2.0956 0.66 -0.3894 1.59028e-015 -7.95139e-016 -9.54166e-015 -5.0395 -0.09 2.4971 -0 -4.77083e-015 -0 -3.7921 -1.552 1.4806 -1.46845e-006 -1.42533e-006 6.01778e-006 -1.4655 -1.808 0.9609 0 1.59028e-015 -0 -4.9141 -1.269 0.3592 -0 -4.77083e-015 -0 -3.1477 -1.685 0.8462 -1.46845e-006 -1.42533e-006 6.01778e-006 -0.8055 -1.585 0.7955 0 1.59028e-015 -0 8.367 -8.2066 0.5982 46.1372 -28.4088 62.3109 2.1923 -43.463 -0.4932 19.3622 58.0374 26.0512 0.7333 -45.8593 -2.6451 35.7787 45.9965 -36.8371 -8.367 -8.2066 0.5982 -46.1537 -28.4028 -62.3366 -2.1923 -43.463 -0.4931 -19.3906 58.037 -26.0364 -0.7333 -45.8593 -2.6451 -35.807 45.9727 36.8647 
-1.14768 20.117 -33.8277 -0.0370044 71.9967 0.0420106 0 -1.186 -1.5018 -0.104324 6.36934 -0.110342 -2.22045e-016 9.964 0.2134 -0.19807 12.7389 -0.210905 0 13.134 -3.2573 -0.19807 12.7388 -0.210906 2.22045e-016 20.686 -1.6905 -3.04949e-007 -5.28385 -1.26982e-007 -2.22045e-016 7.238 -0.1237 -7.43866e-008 -32.8006 6.87941e-008 1.7069 20.075 5.0056 -1.70798 -14.1535 24.0545 13.6458 -0.047 -4.849 2.66605 -4.0861 -59.7161 28.3255 -0.9759 2.2888 11.4141 -15.5729 -25.2198 22.1583 -0.53 10.8316 53.5324 -20.0731 20.5984 0.786 0.112 2.5817 -3.18177e-007 2.06327e-008 6.054e-006 0.3601 -0.878 4.2331 -1.59028e-015 2.38542e-015 3.18055e-015 1.8127 -1.216 2.2227 -5.95855e-007 1.25292e-007 9.39929e-006 0.9571 1.114 1.7695 1.59028e-015 -1.59028e-015 -0 4.1246 0.487 4.1451 -3.18177e-007 2.06327e-008 6.054e-006 3.4052 -1.454 2.7682 -4.77083e-015 7.95139e-016 -0 1.4531 -1.795 1.2713 -5.95855e-007 1.25292e-007 9.39929e-006 5.6954 0.21 2.1184 -3.18177e-007 2.06327e-008 6.054e-006 3.9766 -1.54 2.3863 -4.77083e-015 7.95139e-016 -0 1.4042 -1.926 1.125 -5.95855e-007 1.25292e-007 9.39929e-006 2.0956 0.66 -0.3894 1.59028e-015 -1.59028e-015 -0 5.0395 -0.09 2.4971 -3.18177e-007 2.06327e-008 6.054e-006 3.7921 -1.552 1.4806 -4.77083e-015 7.95139e-016 -0 1.4655 -1.808 0.9609 -5.95855e-007 1.25292e-007 9.39929e-006 4.9141 -1.269 0.3591 -3.18177e-007 2.06327e-008 6.054e-006 3.1477 -1.685 0.8462 -4.77083e-015 7.95139e-016 -0 0.8055 -1.585 0.7955 -5.95855e-007 1.25292e-007 9.39929e-006 -1.7069 20.075 5.0056 1.35131 -14.343 -21.4175 -13.6458 -0.047 -4.849 -1.69048 -2.24392 58.6815 -28.3255 -0.9759 2.2888 -15.171 -18.5288 31.1151 -22.1583 -0.53 10.8316 -52.5333 -12.5758 -24.3789 -0.786 0.112 2.5817 3.18055e-015 -4.77083e-015 -1.90833e-014 -0.3601 -0.878 4.2331 -1.59028e-015 -3.97569e-015 -1.27222e-014 -1.8127 -1.216 2.2227 -3.53113e-031 -3.18055e-015 -6.36111e-015 -0.9571 1.114 1.7695 1.59028e-015 -3.18055e-015 -9.54166e-015 -4.1246 0.487 4.1451 -4.8553e-031 -8.74653e-015 -3.18055e-015 -3.4052 -1.454 2.7682 3.18055e-015 -2.38542e-015 -9.54166e-015 -1.4531 -1.795 1.2713 1.59028e-015 -7.95139e-016 -9.54166e-015 -5.6954 0.21 2.1184 -4.8553e-031 -8.74653e-015 -3.18055e-015 -3.9766 -1.54 2.3863 3.18055e-015 -2.38542e-015 -9.54166e-015 -1.4042 -1.926 1.125 1.59028e-015 -7.95139e-016 -9.54166e-015 -2.0956 0.66 -0.3894 1.59028e-015 -3.18055e-015 -9.54166e-015 -5.0395 -0.09 2.4971 -4.8553e-031 -8.74653e-015 -3.18055e-015 -3.7921 -1.552 1.4806 3.18055e-015 -2.38542e-015 -9.54166e-015 -1.4655 -1.808 0.9609 1.59028e-015 -7.95139e-016 -9.54166e-015 -4.9141 -1.269 0.3592 -4.8553e-031 -8.74653e-015 -3.18055e-015 -3.1477 -1.685 0.8462 3.18055e-015 -2.38542e-015 -9.54166e-015 -0.8055 -1.585 0.7955 1.59028e-015 -7.95139e-016 -9.54166e-015 8.367 -8.2066 0.5982 46.059 -28.2265 62.22 2.1923 -43.463 -0.4932 19.3497 58.0192 26.0626 0.7333 -45.8593 -2.6451 35.79 46.0019 -36.8461 -8.367 -8.2066 0.5982 -46.0751 -28.2206 -62.2458 -2.1923 -43.463 -0.4931 -19.3782 58.019 -26.0478 -0.7333 -45.8593 -2.6451 -35.8182 45.978 36.8737 
-1.14769 20.0216 -33.7715 -0.0370044 71.9967 0.0420106 0 -1.186 -1.5018 -0.104343 6.41584 -0.110212 2.22045e-016 9.964 0.2134 -0.198058 12.8318 -0.210581 0 13.134 -3.2573 -0.198058 12.8318 -0.210581 0 20.686 -1.6905 6.09857e-006 -6.60504 1.05725e-006 2.22045e-016 7.238 -0.1237 1.48037e-007 -31.5122 3.19495e-008 1.7069 20.075 5.0056 -1.61263 -14.2693 23.9572 13.6458 -0.047 -4.849 2.66604 -4.0861 -59.7161 28.3255 -0.9759 2.2888 11.4141 -15.5729 -25.2198 22.1583 -0.53 10.8316 53.5324 -20.0731 20.5984 0.786 0.112 2.5817 4.41391e-031 -3.97569e-015 6.36111e-015 0.3601 -0.878 4.2331 1.76556e-031 -3.18055e-015 3.18055e-015 1.8127 -1.216 2.2227 -1.59028e-015 -1.59028e-015 3.18055e-015 0.9571 1.114 1.7695 1.76556e-031 -1.59028e-015 6.36111e-015 4.1246 0.487 4.1451 -3.18055e-015 -7.95139e-016 1.90833e-014 3.4052 -1.454 2.7682 2.20695e-031 -3.97569e-015 3.18055e-015 1.4531 -1.795 1.2713 1.59028e-015 -5.56597e-015 6.36111e-015 5.6954 0.21 2.1184 -3.18055e-015 -7.95139e-016 1.90833e-014 3.9766 -1.54 2.3863 2.20695e-031 -3.97569e-015 3.18055e-015 1.4042 -1.926 1.125 1.59028e-015 -5.56597e-015 6.36111e-015 2.0956 0.66 -0.3894 1.76556e-031 -1.59028e-015 6.36111e-015 5.0395 -0.09 2.4971 -3.18055e-015 -7.95139e-016 1.90833e-014 3.7921 -1.552 1.4806 2.20695e-031 -3.97569e-015 3.18055e-015 1.4655 -1.808 0.9609 1.59028e-015 -5.56597e-015 6.36111e-015 4.9141 -1.269 0.3591 -3.18055e-015 -7.95139e-016 1.90833e-014 3.1477 -1.685 0.8462 2.20695e-031 -3.97569e-015 3.18055e-015 0.8055 -1.585 0.7955 1.59028e-015 -5.56597e-015 6.36111e-015 -1.7069 20.075 5.0056 1.2585 -14.4744 -21.3568 -13.6458 -0.047 -4.849 -1.69047 -2.24391 58.6815 -28.3255 -0.9759 2.2888 -15.171 -18.5288 31.1151 -22.1583 -0.53 10.8316 -52.5333 -12.5758 -24.3789 -0.786 0.112 2.5817 7.75211e-007 5.48759e-007 3.13115e-008 -0.3601 -0.878 4.2331 1.59028e-015 4.77083e-015 -3.18055e-015 -1.8127 -1.216 2.2227 1.00347e-006 9.74794e-007 -1.20809e-005 -0.9571 1.114 1.7695 -1.32417e-031 7.95139e-016 9.54166e-015 -4.1246 0.487 4.1451 7.75211e-007 5.48759e-007 3.13115e-008 -3.4052 -1.454 2.7682 0 2.38542e-015 -0 -1.4531 -1.795 1.2713 1.00347e-006 9.74794e-007 -1.20809e-005 -5.6954 0.21 2.1184 7.75211e-007 5.48759e-007 3.13115e-008 -3.9766 -1.54 2.3863 0 2.38542e-015 -0 -1.4042 -1.926 1.125 1.00347e-006 9.74794e-007 -1.20809e-005 -2.0956 0.66 -0.3894 -1.32417e-031 7.95139e-016 9.54166e-015 -5.0395 -0.09 2.4971 7.75211e-007 5.48759e-007 3.13115e-008 -3.7921 -1.552 1.4806 0 2.38542e-015 -0 -1.4655 -1.808 0.9609 1.00347e-006 9.74794e-007 -1.20809e-005 -4.9141 -1.269 0.3592 7.75211e-007 5.48759e-007 3.13115e-008 -3.1477 -1.685 0.8462 0 2.38542e-015 -0 -0.8055 -1.585 0.7955 1.00347e-006 9.74794e-007 -1.20809e-005 8.367 -8.2066 0.5982 45.9812 -28.0442 62.1297 2.1923 -43.463 -0.4932 19.3373 58.0011 26.0741 0.7333 -45.8593 -2.6451 35.8013 46.0073 -36.8551 -8.367 -8.2066 0.5982 -45.997 -28.0383 -62.1555 -2.1923 -43.463 -0.4931 -19.3656 58.0007 -26.0594 -0.7333 -45.8593 -2.6451 -35.8296 45.9834 36.8829 
-1.1477 19.9263 -33.7154 -0.0370044 71.9967 0.0420106 0 -1.186 -1.5018 -0.104362 6.46238 -0.11008 0 9.964 0.2134 -0.198044 12.9249 -0.210252 0 13.134 -3.2573 -0.198044 12.9249 -0.210252 0 20.686 -1.6905 -1.00625e-006 -7.92952 -1.344e-006 0 7.238 -0.1237 -1.15544e-007 -30.22 -1.26973e-007 1.7069 20.075 5.0056 -1.51744 -14.3852 23.86 13.6458 -0.047 -4.849 2.66606 -4.0861 -59.7161 28.3255 -0.9759 2.2888 11.4141 -15.5729 -25.2198 22.1583 -0.53 10.8316 53.5325 -20.0731 20.5984 0.786 0.112 2.5817 1.54487e-030 -5.56597e-015 1.59028e-014 0.3601 -0.878 4.2331 -3.18055e-015 7.95139e-016 -6.36111e-015 1.8127 -1.216 2.2227 -3.18055e-015 -7.95139e-016 1.27222e-014 0.9571 1.114 1.7695 3.18055e-015 -3.97569e-015 9.54166e-015 4.1246 0.487 4.1451 -1.59028e-015 8.74653e-015 6.36111e-015 3.4052 -1.454 2.7682 -4.77083e-015 -7.95139e-016 -0 1.4531 -1.795 1.2713 -3.18055e-015 -2.38542e-015 6.36111e-015 5.6954 0.21 2.1184 -1.59028e-015 8.74653e-015 6.36111e-015 3.9766 -1.54 2.3863 -4.77083e-015 -7.95139e-016 -0 1.4042 -1.926 1.125 -3.18055e-015 -2.38542e-015 6.36111e-015 2.0956 0.66 -0.3894 3.18055e-015 -3.97569e-015 9.54166e-015 5.0395 -0.09 2.4971 -1.59028e-015 8.74653e-015 6.36111e-015 3.7921 -1.552 1.4806 -4.77083e-015 -7.95139e-016 -0 1.4655 -1.808 0.9609 -3.18055e-015 -2.38542e-015 6.36111e-015 4.9141 -1.269 0.3591 -1.59028e-015 8.74653e-015 6.36111e-015 3.1477 -1.685 0.8462 -4.77083e-015 -7.95139e-016 -0 0.8055 -1.585 0.7955 -3.18055e-015 -2.38542e-015 6.36111e-015 -1.7069 20.075 5.0056 1.16578 -14.6058 -21.2963 -13.6458 -0.047 -4.849 -1.69049 -2.24389 58.6815 -28.3255 -0.9759 2.2888 -15.171 -18.5288 31.1151 -22.1583 -0.53 10.8316 -52.5333 -12.5757 -24.3789 -0.786 0.112 2.5817 -1.54487e-030 -5.56597e-015 -1.59028e-014 -0.3601 -0.878 4.2331 1.59028e-015 -5.56597e-015 -6.36111e-015 -1.8127 -1.216 2.2227 -1.59028e-015 -7.15625e-015 -6.36111e-015 -0.9571 1.114 1.7695 -1.59028e-015 0 -6.36111e-015 -4.1246 0.487 4.1451 -1.59028e-015 -6.36111e-015 9.54166e-015 -3.4052 -1.454 2.7682 1.59028e-015 -2.38542e-015 -1.59028e-014 -1.4531 -1.795 1.2713 3.18055e-015 -5.56597e-015 -1.59028e-014 -5.6954 0.21 2.1184 -1.59028e-015 -6.36111e-015 9.54166e-015 -3.9766 -1.54 2.3863 1.59028e-015 -2.38542e-015 -1.59028e-014 -1.4042 -1.926 1.125 3.18055e-015 -5.56597e-015 -1.59028e-014 -2.0956 0.66 -0.3894 -1.59028e-015 0 -6.36111e-015 -5.0395 -0.09 2.4971 -1.59028e-015 -6.36111e-015 9.54166e-015 -3.7921 -1.552 1.4806 1.59028e-015 -2.38542e-015 -1.59028e-014 -1.4655 -1.808 0.9609 3.18055e-015 -5.56597e-015 -1.59028e-014 -4.9141 -1.269 0.3592 -1.59028e-015 -6.36111e-015 9.54166e-015 -3.1477 -1.685 0.8462 1.59028e-015 -2.38542e-015 -1.59028e-014 -0.8055 -1.585 0.7955 3.18055e-015 -5.56597e-015 -1.59028e-014 8.367 -8.2066 0.5982 45.9039 -27.8617 62.0398 2.1923 -43.463 -0.4932 19.3247 57.9829 26.0856 0.7333 -45.8593 -2.6451 35.8128 46.0127 -36.8643 -8.367 -8.2066 0.5982 -45.9194 -27.8559 -62.0656 -2.1923 -43.463 -0.4931 -19.3532 57.9827 -26.0708 -0.7333 -45.8593 -2.6451 -35.8409 45.9888 36.8919 
